# xmcd CD database file
#
# Track frame offsets:
#	150
#	13050
#	20320
#	30659
#	37667
#	49775
#	57119
#	67317
#	74586
#	81775
#	95571
#	101768
#	113336
#	119261
#	125169
#	136196
#	148172
#	154524
#	165465
#	172749
#	183556
#	191142
#	200192
#	209264
#	213911
#	218652
#	227266
#	239953
#	247936
#	258802
#	268015
#	279359
#	285619
#	298051
#	308075
#	313364
#	319178
#
# Disc length: 4400 seconds
#
# Revision: 0
# Processed by: cddbd v1.5.1PL0 Copyright (c) Steve Scherf et al.
# Submitted via: CDex 1.51
#
DISCID=27112e25
DTITLE=Sonoton Authentic Series - SAS 212 - Alpine Region - Today
DYEAR=1999
DGENRE=Contentum
TTITLE0=Wilde Berge 1
TTITLE1=Wilde Berge 2
TTITLE2=Bin a Lustiger Bua 1
TTITLE3=Bin a Lustiger Bua 2
TTITLE4=Über Berg Und Tal 1
TTITLE5=Über Berg Und Tal 2
TTITLE6=Watschnmann 1
TTITLE7=Watschnmann 2
TTITLE8=Watschnmann 3
TTITLE9=Seids Lustig 1
TTITLE10=Seids Lustig 2
TTITLE11=Bratwurst Polka 1
TTITLE12=Bratwurst Polka 2
TTITLE13=Bratwurst Polka 3
TTITLE14=Zwiefel
TTITLE15=Almdoodler 1
TTITLE16=Almdoodler 2
TTITLE17=Narrische Schwammerl 1
TTITLE18=Narrische Schwammerl 2
TTITLE19=Oanz Zwoa 1
TTITLE20=Oanz Zwoa 2
TTITLE21=I Und Du 1
TTITLE22=I Und Du 2
TTITLE23=I Und Du 3
TTITLE24=I Und Du 4
TTITLE25=Slow Cow
TTITLE26=Alpenglühn 1
TTITLE27=Alpenglühn 2
TTITLE28=Schorschi
TTITLE29=S Zehnerl
TTITLE30=Coolplatter 1
TTITLE31=Coolplatter 2
TTITLE32=Bayrischer Himmel
TTITLE33=Aubachtaler Landler 1
TTITLE34=Aubachtaler Landler 2
TTITLE35=Staad
TTITLE36=Hin Und Z'ruck
EXTD=YEAR: 1999
EXTT0=
EXTT1=
EXTT2=
EXTT3=
EXTT4=
EXTT5=
EXTT6=
EXTT7=
EXTT8=
EXTT9=
EXTT10=
EXTT11=
EXTT12=
EXTT13=
EXTT14=
EXTT15=
EXTT16=
EXTT17=
EXTT18=
EXTT19=
EXTT20=
EXTT21=
EXTT22=
EXTT23=
EXTT24=
EXTT25=
EXTT26=
EXTT27=
EXTT28=
EXTT29=
EXTT30=
EXTT31=
EXTT32=
EXTT33=
EXTT34=
EXTT35=
EXTT36=
PLAYORDER=
